<mxfile host="65bd71144e">
    <diagram name="Golden Topology" id="J3lvRJlPb6sCFuMdmp8F">
        <mxGraphModel dx="1734" dy="1147" grid="0" gridSize="10" guides="1" tooltips="1" connect="1" arrows="1" fold="1" page="1" pageScale="1" pageWidth="827" pageHeight="1169" math="0" shadow="0">
            <root>
                <mxCell id="uZquAlJrsq5l2rnmuD46-0"/>
                <mxCell id="wvG8Cd0EijWJP6GNUTpN-5" value="Cloud Region" style="" parent="uZquAlJrsq5l2rnmuD46-0" visible="0"/>
                <mxCell id="wvG8Cd0EijWJP6GNUTpN-6" value="&lt;b&gt;Cloud Region&lt;/b&gt;" style="shape=mxgraph.ibm.box;prType=enterprise;fontStyle=0;verticalAlign=top;align=left;spacingLeft=32;spacingTop=4;fillColor=none;rounded=0;whiteSpace=wrap;html=1;strokeColor=#4376BB;strokeWidth=3;dashed=0;container=0;spacing=-4;collapsible=0;fontColor=#000000;labelBackgroundColor=#ffffff;fontSize=18;" parent="wvG8Cd0EijWJP6GNUTpN-5" vertex="1">
                    <mxGeometry x="30" y="150" width="1290" height="1110" as="geometry"/>
                </mxCell>
                <mxCell id="wvG8Cd0EijWJP6GNUTpN-7" value="Common Network" style="html=1;outlineConnect=0;fillColor=#CCCCCC;strokeColor=#6881B3;gradientColor=none;gradientDirection=north;strokeWidth=2;shape=mxgraph.networks.bus;gradientColor=none;gradientDirection=north;fontColor=#ffffff;perimeter=backbonePerimeter;backboneSize=20;labelBackgroundColor=none;align=center;container=0;" parent="wvG8Cd0EijWJP6GNUTpN-5" vertex="1">
                    <mxGeometry x="80.00181818181818" y="1289.9990782170607" width="1199.1136363636365" height="32.670459183673465" as="geometry"/>
                </mxCell>
                <mxCell id="wvG8Cd0EijWJP6GNUTpN-8" value="" style="group" parent="wvG8Cd0EijWJP6GNUTpN-5" vertex="1" connectable="0">
                    <mxGeometry x="991.75" y="1070" width="220" height="160" as="geometry"/>
                </mxCell>
                <mxCell id="wvG8Cd0EijWJP6GNUTpN-9" value="&lt;b&gt;&lt;font color=&quot;#000000&quot;&gt;VPC/VNET&lt;/font&gt;&lt;/b&gt;" style="points=[[0,0],[0.25,0],[0.5,0],[0.75,0],[1,0],[1,0.25],[1,0.5],[1,0.75],[1,1],[0.75,1],[0.5,1],[0.25,1],[0,1],[0,0.75],[0,0.5],[0,0.25]];outlineConnect=0;gradientColor=none;html=1;whiteSpace=wrap;fontSize=12;fontStyle=0;shape=mxgraph.aws4.group;grIcon=mxgraph.aws4.group_vpc;strokeColor=#248814;fillColor=none;verticalAlign=top;align=left;spacingLeft=30;fontColor=#AAB7B8;dashed=0;" parent="wvG8Cd0EijWJP6GNUTpN-5" vertex="1">
                    <mxGeometry x="40" y="180" width="1270" height="1070" as="geometry"/>
                </mxCell>
                <object label="Cloud Provider" id="wvG8Cd0EijWJP6GNUTpN-0">
                    <mxCell style="locked=1;" parent="uZquAlJrsq5l2rnmuD46-0"/>
                </object>
                <mxCell id="wvG8Cd0EijWJP6GNUTpN-1" value="&lt;b&gt;AWS Region&lt;/b&gt;" style="shape=mxgraph.ibm.box;prType=enterprise;fontStyle=0;verticalAlign=top;align=left;spacingLeft=32;spacingTop=4;fillColor=none;rounded=0;whiteSpace=wrap;html=1;strokeColor=#4376BB;strokeWidth=3;dashed=0;container=0;spacing=-4;collapsible=0;fontColor=#000000;labelBackgroundColor=#ffffff;fontSize=18;" parent="wvG8Cd0EijWJP6GNUTpN-0" vertex="1">
                    <mxGeometry x="30" y="150" width="1290" height="1110" as="geometry"/>
                </mxCell>
                <mxCell id="wvG8Cd0EijWJP6GNUTpN-2" value="Common Network" style="html=1;outlineConnect=0;fillColor=#CCCCCC;strokeColor=#6881B3;gradientColor=none;gradientDirection=north;strokeWidth=2;shape=mxgraph.networks.bus;gradientColor=none;gradientDirection=north;fontColor=#ffffff;perimeter=backbonePerimeter;backboneSize=20;labelBackgroundColor=none;align=center;container=0;" parent="wvG8Cd0EijWJP6GNUTpN-0" vertex="1">
                    <mxGeometry x="80.00181818181818" y="1289.9990782170607" width="1199.1136363636365" height="32.670459183673465" as="geometry"/>
                </mxCell>
                <mxCell id="wvG8Cd0EijWJP6GNUTpN-3" value="" style="group" parent="wvG8Cd0EijWJP6GNUTpN-0" vertex="1" connectable="0">
                    <mxGeometry x="991.75" y="1070" width="220" height="160" as="geometry"/>
                </mxCell>
                <mxCell id="wvG8Cd0EijWJP6GNUTpN-4" value="&lt;b&gt;&lt;font color=&quot;#000000&quot;&gt;VPC&lt;/font&gt;&lt;/b&gt;" style="points=[[0,0],[0.25,0],[0.5,0],[0.75,0],[1,0],[1,0.25],[1,0.5],[1,0.75],[1,1],[0.75,1],[0.5,1],[0.25,1],[0,1],[0,0.75],[0,0.5],[0,0.25]];outlineConnect=0;gradientColor=none;html=1;whiteSpace=wrap;fontSize=12;fontStyle=0;shape=mxgraph.aws4.group;grIcon=mxgraph.aws4.group_vpc;strokeColor=#248814;fillColor=none;verticalAlign=top;align=left;spacingLeft=30;fontColor=#AAB7B8;dashed=0;" parent="wvG8Cd0EijWJP6GNUTpN-0" vertex="1">
                    <mxGeometry x="40" y="180" width="1270" height="1070" as="geometry"/>
                </mxCell>
                <mxCell id="lS-NssMR-Rr2RZA9TcL4-113" value="Azure Cloud" style="" parent="uZquAlJrsq5l2rnmuD46-0" visible="0"/>
                <mxCell id="lS-NssMR-Rr2RZA9TcL4-114" value="&lt;b&gt;Azure Region&lt;/b&gt;" style="shape=mxgraph.ibm.box;prType=enterprise;fontStyle=0;verticalAlign=top;align=left;spacingLeft=32;spacingTop=4;fillColor=none;rounded=0;whiteSpace=wrap;html=1;strokeColor=#4376BB;strokeWidth=3;dashed=0;container=0;spacing=-4;collapsible=0;fontColor=#000000;labelBackgroundColor=#ffffff;fontSize=18;" parent="lS-NssMR-Rr2RZA9TcL4-113" vertex="1">
                    <mxGeometry x="30" y="150" width="1290" height="1110" as="geometry"/>
                </mxCell>
                <mxCell id="lS-NssMR-Rr2RZA9TcL4-121" value="Common Network" style="html=1;outlineConnect=0;fillColor=#CCCCCC;strokeColor=#6881B3;gradientColor=none;gradientDirection=north;strokeWidth=2;shape=mxgraph.networks.bus;gradientColor=none;gradientDirection=north;fontColor=#ffffff;perimeter=backbonePerimeter;backboneSize=20;labelBackgroundColor=none;align=center;container=0;" parent="lS-NssMR-Rr2RZA9TcL4-113" vertex="1">
                    <mxGeometry x="80.00181818181818" y="1289.9990782170607" width="1199.1136363636365" height="32.670459183673465" as="geometry"/>
                </mxCell>
                <mxCell id="lS-NssMR-Rr2RZA9TcL4-122" value="" style="group" parent="lS-NssMR-Rr2RZA9TcL4-113" vertex="1" connectable="0">
                    <mxGeometry x="991.75" y="1070" width="220" height="160" as="geometry"/>
                </mxCell>
                <mxCell id="rJhWBv6eELaH0z6lBwar-2" value="&lt;b&gt;&lt;font color=&quot;#000000&quot;&gt;VNET&lt;/font&gt;&lt;/b&gt;" style="points=[[0,0],[0.25,0],[0.5,0],[0.75,0],[1,0],[1,0.25],[1,0.5],[1,0.75],[1,1],[0.75,1],[0.5,1],[0.25,1],[0,1],[0,0.75],[0,0.5],[0,0.25]];outlineConnect=0;gradientColor=none;html=1;whiteSpace=wrap;fontSize=12;fontStyle=0;shape=mxgraph.aws4.group;grIcon=mxgraph.aws4.group_vpc;strokeColor=#248814;fillColor=none;verticalAlign=top;align=left;spacingLeft=30;fontColor=#AAB7B8;dashed=0;" parent="lS-NssMR-Rr2RZA9TcL4-113" vertex="1">
                    <mxGeometry x="40" y="180" width="1270" height="1070" as="geometry"/>
                </mxCell>
                <mxCell id="uZquAlJrsq5l2rnmuD46-1" value="Availability Zones" style="" parent="uZquAlJrsq5l2rnmuD46-0"/>
                <mxCell id="uZquAlJrsq5l2rnmuD46-2" value="" style="shape=mxgraph.ibm.box;prType=enterprise;fontStyle=0;verticalAlign=top;align=left;spacingLeft=32;spacingTop=4;fillColor=none;rounded=0;whiteSpace=wrap;html=1;strokeColor=#4376BB;strokeWidth=3;dashed=0;container=0;spacing=-4;collapsible=0;fontColor=#000000;labelBackgroundColor=#ffffff;fontSize=18;" parent="uZquAlJrsq5l2rnmuD46-1" vertex="1">
                    <mxGeometry x="30" y="150" width="1290" height="1110" as="geometry"/>
                </mxCell>
                <mxCell id="uZquAlJrsq5l2rnmuD46-5" value="&lt;b&gt;Availability Zone #1&lt;/b&gt;" style="shape=mxgraph.ibm.box;prType=zone;fontStyle=0;verticalAlign=top;align=left;spacingLeft=32;spacingTop=4;fillColor=#E0E0E0;rounded=0;whiteSpace=wrap;html=1;strokeColor=#919191;strokeWidth=1;dashed=0;container=0;spacing=-4;collapsible=0;fontColor=#000000;fontSize=14;" parent="uZquAlJrsq5l2rnmuD46-1" vertex="1">
                    <mxGeometry x="80" y="210" width="310" height="1020" as="geometry"/>
                </mxCell>
                <mxCell id="uZquAlJrsq5l2rnmuD46-6" value="&lt;b&gt;Availability Zone #2&lt;/b&gt;" style="shape=mxgraph.ibm.box;prType=zone;fontStyle=0;verticalAlign=top;align=left;spacingLeft=32;spacingTop=4;fillColor=#E0E0E0;rounded=0;whiteSpace=wrap;html=1;strokeColor=#919191;strokeWidth=1;dashed=0;container=0;spacing=-4;collapsible=0;fontColor=#000000;fontSize=14;" parent="uZquAlJrsq5l2rnmuD46-1" vertex="1">
                    <mxGeometry x="520" y="210" width="310" height="1020" as="geometry"/>
                </mxCell>
                <mxCell id="uZquAlJrsq5l2rnmuD46-7" value="&lt;b&gt;Availability Zone #3&lt;/b&gt;" style="shape=mxgraph.ibm.box;prType=zone;fontStyle=0;verticalAlign=top;align=left;spacingLeft=32;spacingTop=4;fillColor=#E0E0E0;rounded=0;whiteSpace=wrap;html=1;strokeColor=#919191;strokeWidth=1;dashed=0;container=0;spacing=-4;collapsible=0;fontColor=#000000;fontSize=14;" parent="uZquAlJrsq5l2rnmuD46-1" vertex="1">
                    <mxGeometry x="963" y="210" width="310" height="1020" as="geometry"/>
                </mxCell>
                <mxCell id="uZquAlJrsq5l2rnmuD46-9" value="" style="shape=link;html=1;fontSize=14;fontColor=#000000;exitX=0.5;exitY=1;exitDx=0;exitDy=0;" parent="uZquAlJrsq5l2rnmuD46-1" source="uZquAlJrsq5l2rnmuD46-6" target="uZquAlJrsq5l2rnmuD46-4" edge="1">
                    <mxGeometry width="50" height="50" relative="1" as="geometry">
                        <mxPoint x="680" y="1170" as="sourcePoint"/>
                        <mxPoint x="673" y="1250" as="targetPoint"/>
                    </mxGeometry>
                </mxCell>
                <mxCell id="uZquAlJrsq5l2rnmuD46-17" value="" style="shape=link;html=1;fontSize=15;fontColor=#000000;exitX=0.5;exitY=1;exitDx=0;exitDy=0;" parent="uZquAlJrsq5l2rnmuD46-1" source="uZquAlJrsq5l2rnmuD46-7" target="uZquAlJrsq5l2rnmuD46-4" edge="1">
                    <mxGeometry width="50" height="50" relative="1" as="geometry">
                        <mxPoint x="650" y="1967" as="sourcePoint"/>
                        <mxPoint x="1068" y="1253" as="targetPoint"/>
                    </mxGeometry>
                </mxCell>
                <mxCell id="uZquAlJrsq5l2rnmuD46-10" value="" style="shape=link;html=1;fontSize=14;fontColor=#000000;entryX=0.5;entryY=1;entryDx=0;entryDy=0;" parent="uZquAlJrsq5l2rnmuD46-1" source="uZquAlJrsq5l2rnmuD46-4" target="uZquAlJrsq5l2rnmuD46-5" edge="1">
                    <mxGeometry width="50" height="50" relative="1" as="geometry">
                        <mxPoint x="165" y="970" as="sourcePoint"/>
                        <mxPoint x="200" y="1613.1693599999999" as="targetPoint"/>
                    </mxGeometry>
                </mxCell>
                <mxCell id="uZquAlJrsq5l2rnmuD46-4" value="Common Network" style="html=1;outlineConnect=0;fillColor=#CCCCCC;strokeColor=#6881B3;gradientColor=none;gradientDirection=north;strokeWidth=2;shape=mxgraph.networks.bus;gradientColor=none;gradientDirection=north;fontColor=#ffffff;perimeter=backbonePerimeter;backboneSize=20;labelBackgroundColor=none;align=center;container=0;" parent="uZquAlJrsq5l2rnmuD46-1" vertex="1">
                    <mxGeometry x="80.00181818181818" y="1289.9990782170607" width="1199.1136363636365" height="32.670459183673465" as="geometry"/>
                </mxCell>
                <mxCell id="nRmkjCrauEu7ySk_4DRu-57" value="" style="group" parent="uZquAlJrsq5l2rnmuD46-1" vertex="1" connectable="0">
                    <mxGeometry x="991.75" y="1070" width="220" height="160" as="geometry"/>
                </mxCell>
                <mxCell id="uZquAlJrsq5l2rnmuD46-75" value="External Services" style="" parent="uZquAlJrsq5l2rnmuD46-0"/>
                <mxCell id="vyINMFB3ywmpkuRET3q9-15" value="" style="shape=link;html=1;fontSize=14;fontColor=#000000;exitX=0.463;exitY=-0.015;exitDx=0;exitDy=0;exitPerimeter=0;" parent="uZquAlJrsq5l2rnmuD46-75" source="uZquAlJrsq5l2rnmuD46-12" target="uZquAlJrsq5l2rnmuD46-4" edge="1">
                    <mxGeometry width="50" height="50" relative="1" as="geometry">
                        <mxPoint x="685" y="1180" as="sourcePoint"/>
                        <mxPoint x="685" y="1270" as="targetPoint"/>
                    </mxGeometry>
                </mxCell>
                <mxCell id="g6O5RB1uuhMYXJ0zeJsR-1" value="" style="group" parent="uZquAlJrsq5l2rnmuD46-75" vertex="1" connectable="0">
                    <mxGeometry x="410" y="1370" width="570" height="160" as="geometry"/>
                </mxCell>
                <mxCell id="uZquAlJrsq5l2rnmuD46-12" value="&lt;b&gt;Infrastructure Services&lt;/b&gt;" style="rounded=0;whiteSpace=wrap;html=1;verticalAlign=top;align=left;dashed=1;fontSize=15;container=0;" parent="g6O5RB1uuhMYXJ0zeJsR-1" vertex="1">
                    <mxGeometry width="570" height="160" as="geometry"/>
                </mxCell>
                <mxCell id="vyINMFB3ywmpkuRET3q9-13" value="DHCP" style="aspect=fixed;perimeter=ellipsePerimeter;html=1;align=center;shadow=0;dashed=0;fontColor=#4277BB;labelBackgroundColor=#ffffff;fontSize=12;spacingTop=3;image;image=img/lib/ibm/infrastructure/infrastructure_services.svg;container=0;" parent="g6O5RB1uuhMYXJ0zeJsR-1" vertex="1">
                    <mxGeometry x="295" y="50" width="60" height="60" as="geometry"/>
                </mxCell>
                <mxCell id="vyINMFB3ywmpkuRET3q9-11" value="NTP" style="aspect=fixed;perimeter=ellipsePerimeter;html=1;align=center;shadow=0;dashed=0;fontColor=#4277BB;labelBackgroundColor=#ffffff;fontSize=12;spacingTop=3;image;image=img/lib/ibm/infrastructure/infrastructure_services.svg;container=0;" parent="g6O5RB1uuhMYXJ0zeJsR-1" vertex="1">
                    <mxGeometry x="215" y="50" width="60" height="60" as="geometry"/>
                </mxCell>
                <mxCell id="vyINMFB3ywmpkuRET3q9-14" value="DNS" style="aspect=fixed;perimeter=ellipsePerimeter;html=1;align=center;shadow=0;dashed=0;fontColor=#4277BB;labelBackgroundColor=#ffffff;fontSize=12;spacingTop=3;image;image=img/lib/ibm/infrastructure/infrastructure_services.svg;container=0;" parent="g6O5RB1uuhMYXJ0zeJsR-1" vertex="1">
                    <mxGeometry x="135" y="50" width="60" height="60" as="geometry"/>
                </mxCell>
                <mxCell id="RaqJMLTzkmmdIcjOtUHy-11" value="Registry" style="" parent="uZquAlJrsq5l2rnmuD46-0"/>
                <mxCell id="vyINMFB3ywmpkuRET3q9-10" value="Registry" style="aspect=fixed;perimeter=ellipsePerimeter;html=1;align=center;shadow=0;dashed=0;fontColor=#4277BB;labelBackgroundColor=#ffffff;fontSize=12;spacingTop=3;image;image=img/lib/ibm/data/data_services.svg;container=0;" parent="RaqJMLTzkmmdIcjOtUHy-11" vertex="1">
                    <mxGeometry x="785" y="1420" width="60" height="60" as="geometry"/>
                </mxCell>
                <mxCell id="uZquAlJrsq5l2rnmuD46-28" value="Control Plane" style="" parent="uZquAlJrsq5l2rnmuD46-0"/>
                <mxCell id="nRmkjCrauEu7ySk_4DRu-77" value="" style="group" parent="uZquAlJrsq5l2rnmuD46-28" vertex="1" connectable="0">
                    <mxGeometry x="90" y="250" width="1170" height="250" as="geometry"/>
                </mxCell>
                <mxCell id="9j-W4DqO4weL1ffOHmue-11" value="&lt;b&gt;&lt;font color=&quot;#000000&quot;&gt;Control Plane Subnet&lt;/font&gt;&lt;/b&gt;" style="outlineConnect=0;gradientColor=none;html=1;whiteSpace=wrap;fontSize=12;fontStyle=0;shape=mxgraph.aws4.group;grIcon=mxgraph.aws4.group_subnet;strokeColor=#879196;fillColor=none;verticalAlign=top;align=left;spacingLeft=30;fontColor=#879196;dashed=0;container=0;" parent="nRmkjCrauEu7ySk_4DRu-77" vertex="1">
                    <mxGeometry width="1170" height="250" as="geometry"/>
                </mxCell>
                <mxCell id="nRmkjCrauEu7ySk_4DRu-74" value="" style="group" parent="nRmkjCrauEu7ySk_4DRu-77" vertex="1" connectable="0">
                    <mxGeometry x="40" y="30" width="220" height="195.32" as="geometry"/>
                </mxCell>
                <mxCell id="uZquAlJrsq5l2rnmuD46-32" value="&lt;b&gt;master-1&lt;/b&gt;" style="rounded=0;whiteSpace=wrap;html=1;align=center;fillColor=#f8cecc;strokeColor=#b85450;verticalAlign=top;container=0;" parent="nRmkjCrauEu7ySk_4DRu-74" vertex="1">
                    <mxGeometry width="220" height="195.32" as="geometry"/>
                </mxCell>
                <mxCell id="uZquAlJrsq5l2rnmuD46-33" value="etcd" style="html=1;dashed=0;whitespace=wrap;fillColor=#2875E2;strokeColor=#ffffff;points=[[0.005,0.63,0],[0.1,0.2,0],[0.9,0.2,0],[0.5,0,0],[0.995,0.63,0],[0.72,0.99,0],[0.5,1,0],[0.28,0.99,0]];shape=mxgraph.kubernetes.icon;prIcon=etcd;fontColor=#000000;align=center;labelPosition=center;verticalLabelPosition=bottom;verticalAlign=top;container=0;" parent="nRmkjCrauEu7ySk_4DRu-74" vertex="1">
                    <mxGeometry x="140" y="120" width="50" height="48" as="geometry"/>
                </mxCell>
                <mxCell id="uZquAlJrsq5l2rnmuD46-34" value="OpenShift Services" style="aspect=fixed;html=1;points=[];align=center;image;fontSize=12;image=img/lib/mscae/OpenShift.svg;labelBackgroundColor=none;container=0;" parent="nRmkjCrauEu7ySk_4DRu-74" vertex="1">
                    <mxGeometry x="40" y="40" width="50" height="46" as="geometry"/>
                </mxCell>
                <mxCell id="uZquAlJrsq5l2rnmuD46-35" value="API" style="html=1;dashed=0;whitespace=wrap;fillColor=#2875E2;strokeColor=#ffffff;points=[[0.005,0.63,0],[0.1,0.2,0],[0.9,0.2,0],[0.5,0,0],[0.995,0.63,0],[0.72,0.99,0],[0.5,1,0],[0.28,0.99,0]];shape=mxgraph.kubernetes.icon;prIcon=api;fontColor=#000000;align=center;verticalAlign=top;labelPosition=center;verticalLabelPosition=bottom;container=0;" parent="nRmkjCrauEu7ySk_4DRu-74" vertex="1">
                    <mxGeometry x="140" y="39" width="50" height="48" as="geometry"/>
                </mxCell>
                <mxCell id="uZquAlJrsq5l2rnmuD46-36" value="CoreDNS" style="html=1;dashed=0;whitespace=wrap;fillColor=#2875E2;strokeColor=#ffffff;points=[[0.005,0.63,0],[0.1,0.2,0],[0.9,0.2,0],[0.5,0,0],[0.995,0.63,0],[0.72,0.99,0],[0.5,1,0],[0.28,0.99,0]];shape=mxgraph.kubernetes.icon;prIcon=ds;fontColor=#000000;align=center;labelPosition=center;verticalLabelPosition=bottom;verticalAlign=top;container=0;" parent="nRmkjCrauEu7ySk_4DRu-74" vertex="1">
                    <mxGeometry x="40" y="120" width="50" height="48" as="geometry"/>
                </mxCell>
                <mxCell id="nRmkjCrauEu7ySk_4DRu-75" value="" style="group" parent="nRmkjCrauEu7ySk_4DRu-77" vertex="1" connectable="0">
                    <mxGeometry x="480" y="30" width="220" height="195.32" as="geometry"/>
                </mxCell>
                <mxCell id="uZquAlJrsq5l2rnmuD46-37" value="&lt;b&gt;master-2&lt;/b&gt;" style="rounded=0;whiteSpace=wrap;html=1;align=center;fillColor=#f8cecc;strokeColor=#b85450;verticalAlign=top;container=0;" parent="nRmkjCrauEu7ySk_4DRu-75" vertex="1">
                    <mxGeometry width="220" height="195.32" as="geometry"/>
                </mxCell>
                <mxCell id="uZquAlJrsq5l2rnmuD46-38" value="etcd" style="html=1;dashed=0;whitespace=wrap;fillColor=#2875E2;strokeColor=#ffffff;points=[[0.005,0.63,0],[0.1,0.2,0],[0.9,0.2,0],[0.5,0,0],[0.995,0.63,0],[0.72,0.99,0],[0.5,1,0],[0.28,0.99,0]];shape=mxgraph.kubernetes.icon;prIcon=etcd;fontColor=#000000;align=center;labelPosition=center;verticalLabelPosition=bottom;verticalAlign=top;container=0;" parent="nRmkjCrauEu7ySk_4DRu-75" vertex="1">
                    <mxGeometry x="140" y="120" width="50" height="48" as="geometry"/>
                </mxCell>
                <mxCell id="uZquAlJrsq5l2rnmuD46-39" value="OpenShift Services" style="aspect=fixed;html=1;points=[];align=center;image;fontSize=12;image=img/lib/mscae/OpenShift.svg;labelBackgroundColor=none;container=0;" parent="nRmkjCrauEu7ySk_4DRu-75" vertex="1">
                    <mxGeometry x="40" y="40" width="50" height="46" as="geometry"/>
                </mxCell>
                <mxCell id="uZquAlJrsq5l2rnmuD46-40" value="API" style="html=1;dashed=0;whitespace=wrap;fillColor=#2875E2;strokeColor=#ffffff;points=[[0.005,0.63,0],[0.1,0.2,0],[0.9,0.2,0],[0.5,0,0],[0.995,0.63,0],[0.72,0.99,0],[0.5,1,0],[0.28,0.99,0]];shape=mxgraph.kubernetes.icon;prIcon=api;fontColor=#000000;align=center;verticalAlign=top;labelPosition=center;verticalLabelPosition=bottom;container=0;" parent="nRmkjCrauEu7ySk_4DRu-75" vertex="1">
                    <mxGeometry x="140" y="39" width="50" height="48" as="geometry"/>
                </mxCell>
                <mxCell id="uZquAlJrsq5l2rnmuD46-41" value="CoreDNS" style="html=1;dashed=0;whitespace=wrap;fillColor=#2875E2;strokeColor=#ffffff;points=[[0.005,0.63,0],[0.1,0.2,0],[0.9,0.2,0],[0.5,0,0],[0.995,0.63,0],[0.72,0.99,0],[0.5,1,0],[0.28,0.99,0]];shape=mxgraph.kubernetes.icon;prIcon=ds;fontColor=#000000;align=center;labelPosition=center;verticalLabelPosition=bottom;verticalAlign=top;container=0;" parent="nRmkjCrauEu7ySk_4DRu-75" vertex="1">
                    <mxGeometry x="40" y="120" width="50" height="48" as="geometry"/>
                </mxCell>
                <mxCell id="nRmkjCrauEu7ySk_4DRu-76" value="" style="group" parent="nRmkjCrauEu7ySk_4DRu-77" vertex="1" connectable="0">
                    <mxGeometry x="923" y="30" width="220" height="195.32" as="geometry"/>
                </mxCell>
                <mxCell id="uZquAlJrsq5l2rnmuD46-42" value="&lt;b&gt;master-3&lt;/b&gt;" style="rounded=0;whiteSpace=wrap;html=1;align=center;fillColor=#f8cecc;strokeColor=#b85450;verticalAlign=top;container=0;" parent="nRmkjCrauEu7ySk_4DRu-76" vertex="1">
                    <mxGeometry width="220" height="195.32" as="geometry"/>
                </mxCell>
                <mxCell id="uZquAlJrsq5l2rnmuD46-43" value="etcd" style="html=1;dashed=0;whitespace=wrap;fillColor=#2875E2;strokeColor=#ffffff;points=[[0.005,0.63,0],[0.1,0.2,0],[0.9,0.2,0],[0.5,0,0],[0.995,0.63,0],[0.72,0.99,0],[0.5,1,0],[0.28,0.99,0]];shape=mxgraph.kubernetes.icon;prIcon=etcd;fontColor=#000000;align=center;labelPosition=center;verticalLabelPosition=bottom;verticalAlign=top;container=0;" parent="nRmkjCrauEu7ySk_4DRu-76" vertex="1">
                    <mxGeometry x="140" y="120" width="50" height="48" as="geometry"/>
                </mxCell>
                <mxCell id="uZquAlJrsq5l2rnmuD46-44" value="OpenShift Services" style="aspect=fixed;html=1;points=[];align=center;image;fontSize=12;image=img/lib/mscae/OpenShift.svg;labelBackgroundColor=none;container=0;" parent="nRmkjCrauEu7ySk_4DRu-76" vertex="1">
                    <mxGeometry x="40" y="40" width="50" height="46" as="geometry"/>
                </mxCell>
                <mxCell id="uZquAlJrsq5l2rnmuD46-45" value="API" style="html=1;dashed=0;whitespace=wrap;fillColor=#2875E2;strokeColor=#ffffff;points=[[0.005,0.63,0],[0.1,0.2,0],[0.9,0.2,0],[0.5,0,0],[0.995,0.63,0],[0.72,0.99,0],[0.5,1,0],[0.28,0.99,0]];shape=mxgraph.kubernetes.icon;prIcon=api;fontColor=#000000;align=center;verticalAlign=top;labelPosition=center;verticalLabelPosition=bottom;container=0;" parent="nRmkjCrauEu7ySk_4DRu-76" vertex="1">
                    <mxGeometry x="140" y="39" width="50" height="48" as="geometry"/>
                </mxCell>
                <mxCell id="uZquAlJrsq5l2rnmuD46-46" value="CoreDNS" style="html=1;dashed=0;whitespace=wrap;fillColor=#2875E2;strokeColor=#ffffff;points=[[0.005,0.63,0],[0.1,0.2,0],[0.9,0.2,0],[0.5,0,0],[0.995,0.63,0],[0.72,0.99,0],[0.5,1,0],[0.28,0.99,0]];shape=mxgraph.kubernetes.icon;prIcon=ds;fontColor=#000000;align=center;labelPosition=center;verticalLabelPosition=bottom;verticalAlign=top;container=0;" parent="nRmkjCrauEu7ySk_4DRu-76" vertex="1">
                    <mxGeometry x="40" y="120" width="50" height="48" as="geometry"/>
                </mxCell>
                <mxCell id="uZquAlJrsq5l2rnmuD46-30" value="" style="shape=flexArrow;endArrow=classic;startArrow=classic;html=1;fontColor=#000000;fillColor=#ffe6cc;strokeColor=#d79b00;endWidth=28;endSize=9.33;startWidth=28;startSize=9.33;" parent="nRmkjCrauEu7ySk_4DRu-77" source="uZquAlJrsq5l2rnmuD46-37" target="uZquAlJrsq5l2rnmuD46-42" edge="1">
                    <mxGeometry x="160" y="400" width="50" height="50" as="geometry">
                        <mxPoint x="790" y="347.3463157894739" as="sourcePoint"/>
                        <mxPoint x="1010" y="347.1599879007863" as="targetPoint"/>
                    </mxGeometry>
                </mxCell>
                <mxCell id="uZquAlJrsq5l2rnmuD46-31" value="Anti-affinity rules" style="text;html=1;align=center;verticalAlign=middle;resizable=0;points=[];labelBackgroundColor=#ffffff;fontColor=#000000;fontSize=14;container=0;" parent="uZquAlJrsq5l2rnmuD46-30" vertex="1" connectable="0">
                    <mxGeometry x="-0.1909" relative="1" as="geometry">
                        <mxPoint x="21" y="0.56" as="offset"/>
                    </mxGeometry>
                </mxCell>
                <mxCell id="uZquAlJrsq5l2rnmuD46-47" value="" style="shape=flexArrow;endArrow=classic;startArrow=classic;html=1;fontColor=#000000;fillColor=#ffe6cc;strokeColor=#d79b00;endWidth=28;endSize=9.33;startWidth=28;startSize=9.33;" parent="nRmkjCrauEu7ySk_4DRu-77" edge="1">
                    <mxGeometry x="70" y="183" width="50" height="50" as="geometry">
                        <mxPoint x="260" y="130" as="sourcePoint"/>
                        <mxPoint x="480" y="130" as="targetPoint"/>
                    </mxGeometry>
                </mxCell>
                <mxCell id="uZquAlJrsq5l2rnmuD46-48" value="Anti-affinity rules" style="text;html=1;align=center;verticalAlign=middle;resizable=0;points=[];labelBackgroundColor=#ffffff;fontColor=#000000;fontSize=14;container=0;" parent="uZquAlJrsq5l2rnmuD46-47" vertex="1" connectable="0">
                    <mxGeometry x="-0.1909" relative="1" as="geometry">
                        <mxPoint x="21" y="0.56" as="offset"/>
                    </mxGeometry>
                </mxCell>
                <mxCell id="70Aeh1xPDhNRfWzck_01-3" value="&lt;font style=&quot;font-size: 10px&quot;&gt;&lt;b&gt;API-INT&lt;br&gt;LoadBalancer&lt;/b&gt;&lt;br&gt;&lt;/font&gt;" style="fontColor=#0066CC;verticalAlign=top;verticalLabelPosition=bottom;labelPosition=center;align=center;html=1;outlineConnect=0;fillColor=#CCCCCC;strokeColor=#6881B3;gradientColor=none;gradientDirection=north;strokeWidth=2;shape=mxgraph.networks.load_balancer;" parent="uZquAlJrsq5l2rnmuD46-28" vertex="1">
                    <mxGeometry x="1420" y="410" width="140" height="40" as="geometry"/>
                </mxCell>
                <mxCell id="70Aeh1xPDhNRfWzck_01-0" value="&lt;font style=&quot;font-size: 10px&quot;&gt;&lt;b&gt;API&lt;br&gt;LoadBalancer&lt;/b&gt;&lt;br&gt;&lt;/font&gt;" style="fontColor=#0066CC;verticalAlign=top;verticalLabelPosition=bottom;labelPosition=center;align=center;html=1;outlineConnect=0;fillColor=#CCCCCC;strokeColor=#6881B3;gradientColor=none;gradientDirection=north;strokeWidth=2;shape=mxgraph.networks.load_balancer;" parent="uZquAlJrsq5l2rnmuD46-28" vertex="1">
                    <mxGeometry x="1420" y="300" width="140" height="40" as="geometry"/>
                </mxCell>
                <mxCell id="70Aeh1xPDhNRfWzck_01-4" style="edgeStyle=orthogonalEdgeStyle;rounded=0;orthogonalLoop=1;jettySize=auto;html=1;" parent="uZquAlJrsq5l2rnmuD46-28" source="70Aeh1xPDhNRfWzck_01-3" target="9j-W4DqO4weL1ffOHmue-11" edge="1">
                    <mxGeometry relative="1" as="geometry"/>
                </mxCell>
                <mxCell id="70Aeh1xPDhNRfWzck_01-2" value="" style="edgeStyle=orthogonalEdgeStyle;rounded=0;orthogonalLoop=1;jettySize=auto;html=1;" parent="uZquAlJrsq5l2rnmuD46-28" source="70Aeh1xPDhNRfWzck_01-0" target="9j-W4DqO4weL1ffOHmue-11" edge="1">
                    <mxGeometry relative="1" as="geometry"/>
                </mxCell>
                <mxCell id="uZquAlJrsq5l2rnmuD46-73" value="Worker" style="" parent="uZquAlJrsq5l2rnmuD46-0"/>
                <mxCell id="uZquAlJrsq5l2rnmuD46-3" value="" style="group;container=0;" parent="uZquAlJrsq5l2rnmuD46-73" vertex="1" connectable="0">
                    <mxGeometry x="553.8181818181819" y="1017.9362063225409" width="215" height="257.14126088025733" as="geometry"/>
                </mxCell>
                <mxCell id="9j-W4DqO4weL1ffOHmue-71" value="&lt;font color=&quot;#000000&quot;&gt;&lt;b&gt;Worker Subnet&lt;/b&gt;&lt;/font&gt;" style="outlineConnect=0;gradientColor=none;html=1;whiteSpace=wrap;fontSize=12;fontStyle=0;shape=mxgraph.aws4.group;grIcon=mxgraph.aws4.group_subnet;strokeColor=#879196;fillColor=none;verticalAlign=top;align=left;spacingLeft=30;fontColor=#879196;dashed=0;container=0;" parent="uZquAlJrsq5l2rnmuD46-73" vertex="1">
                    <mxGeometry x="90" y="500" width="1170" height="720" as="geometry"/>
                </mxCell>
                <mxCell id="g6O5RB1uuhMYXJ0zeJsR-0" value="" style="group" parent="uZquAlJrsq5l2rnmuD46-73" vertex="1" connectable="0">
                    <mxGeometry x="98.25" y="980" width="1153.5" height="230" as="geometry"/>
                </mxCell>
                <mxCell id="nRmkjCrauEu7ySk_4DRu-26" value="" style="rounded=0;whiteSpace=wrap;html=1;align=center;fillColor=#f8cecc;strokeColor=#b85450;verticalAlign=top;container=0;" parent="g6O5RB1uuhMYXJ0zeJsR-0" vertex="1">
                    <mxGeometry x="891.75" y="30" width="220" height="159.99999999999997" as="geometry"/>
                </mxCell>
                <mxCell id="nRmkjCrauEu7ySk_4DRu-16" value="" style="rounded=0;whiteSpace=wrap;html=1;align=center;fillColor=#f8cecc;strokeColor=#b85450;verticalAlign=top;container=0;" parent="g6O5RB1uuhMYXJ0zeJsR-0" vertex="1">
                    <mxGeometry x="457.5" y="35" width="220" height="159.99999999999997" as="geometry"/>
                </mxCell>
                <mxCell id="nRmkjCrauEu7ySk_4DRu-2" value="" style="rounded=0;whiteSpace=wrap;html=1;align=center;fillColor=#f8cecc;strokeColor=#b85450;verticalAlign=top;container=0;" parent="g6O5RB1uuhMYXJ0zeJsR-0" vertex="1">
                    <mxGeometry x="17.5" y="35" width="220" height="159.99999999999997" as="geometry"/>
                </mxCell>
                <mxCell id="9j-W4DqO4weL1ffOHmue-72" value="&lt;font color=&quot;#000000&quot;&gt;&lt;b&gt;Workers MachineSets&lt;/b&gt;&lt;/font&gt;" style="outlineConnect=0;gradientColor=none;html=1;whiteSpace=wrap;fontSize=12;fontStyle=0;shape=mxgraph.aws4.group;grIcon=mxgraph.aws4.group_region;strokeColor=#B6BABF;fillColor=none;verticalAlign=top;align=left;spacingLeft=30;fontColor=#B6BABF;dashed=1;container=0;" parent="g6O5RB1uuhMYXJ0zeJsR-0" vertex="1">
                    <mxGeometry width="1153.5" height="230" as="geometry"/>
                </mxCell>
                <mxCell id="nRmkjCrauEu7ySk_4DRu-3" value="" style="rounded=0;whiteSpace=wrap;html=1;align=center;fillColor=#f8cecc;strokeColor=#b85450;verticalAlign=top;container=0;" parent="g6O5RB1uuhMYXJ0zeJsR-0" vertex="1">
                    <mxGeometry x="27.5" y="46.309999999999945" width="220" height="158.69" as="geometry"/>
                </mxCell>
                <mxCell id="nRmkjCrauEu7ySk_4DRu-4" value="Workers" style="rounded=0;whiteSpace=wrap;html=1;align=center;fillColor=#f8cecc;strokeColor=#b85450;verticalAlign=top;container=0;" parent="g6O5RB1uuhMYXJ0zeJsR-0" vertex="1">
                    <mxGeometry x="36" y="57.6099999999999" width="220" height="157.39" as="geometry"/>
                </mxCell>
                <mxCell id="nRmkjCrauEu7ySk_4DRu-5" value="" style="aspect=fixed;perimeter=ellipsePerimeter;html=1;align=center;shadow=0;dashed=0;fontColor=#4277BB;labelBackgroundColor=#ffffff;fontSize=12;spacingTop=3;image;image=img/lib/ibm/applications/enterprise_applications.svg;container=0;" parent="g6O5RB1uuhMYXJ0zeJsR-0" vertex="1">
                    <mxGeometry x="64.91" y="92.40852051221714" width="45.18059991255275" height="45.18059991255275" as="geometry"/>
                </mxCell>
                <mxCell id="nRmkjCrauEu7ySk_4DRu-6" value="" style="aspect=fixed;perimeter=ellipsePerimeter;html=1;align=center;shadow=0;dashed=0;fontColor=#4277BB;labelBackgroundColor=#ffffff;fontSize=12;spacingTop=3;image;image=img/lib/ibm/applications/enterprise_applications.svg;container=0;" parent="g6O5RB1uuhMYXJ0zeJsR-0" vertex="1">
                    <mxGeometry x="164.91000000000003" y="92.40852051221714" width="45.18059991255275" height="45.18059991255275" as="geometry"/>
                </mxCell>
                <mxCell id="nRmkjCrauEu7ySk_4DRu-9" value="" style="aspect=fixed;perimeter=ellipsePerimeter;html=1;align=center;shadow=0;dashed=0;fontColor=#4277BB;labelBackgroundColor=#ffffff;fontSize=12;spacingTop=3;image;image=img/lib/ibm/applications/enterprise_applications.svg;container=0;" parent="g6O5RB1uuhMYXJ0zeJsR-0" vertex="1">
                    <mxGeometry x="164.91000000000003" y="152.41214152791508" width="45.18059991255275" height="45.18059991255275" as="geometry"/>
                </mxCell>
                <mxCell id="nRmkjCrauEu7ySk_4DRu-10" value="" style="aspect=fixed;perimeter=ellipsePerimeter;html=1;align=center;shadow=0;dashed=0;fontColor=#000000;labelBackgroundColor=#F8CECC;fontSize=12;spacingTop=3;image;image=img/lib/ibm/applications/enterprise_applications.svg;container=0;" parent="g6O5RB1uuhMYXJ0zeJsR-0" vertex="1">
                    <mxGeometry x="64.91" y="152.41155353581053" width="45.18059991255275" height="45.18059991255275" as="geometry"/>
                </mxCell>
                <mxCell id="nRmkjCrauEu7ySk_4DRu-17" value="" style="rounded=0;whiteSpace=wrap;html=1;align=center;fillColor=#f8cecc;strokeColor=#b85450;verticalAlign=top;container=0;" parent="g6O5RB1uuhMYXJ0zeJsR-0" vertex="1">
                    <mxGeometry x="467.5" y="46.309999999999945" width="220" height="158.69" as="geometry"/>
                </mxCell>
                <mxCell id="nRmkjCrauEu7ySk_4DRu-18" value="Workers" style="rounded=0;whiteSpace=wrap;html=1;align=center;fillColor=#f8cecc;strokeColor=#b85450;verticalAlign=top;container=0;" parent="g6O5RB1uuhMYXJ0zeJsR-0" vertex="1">
                    <mxGeometry x="476" y="57.6099999999999" width="220" height="157.39" as="geometry"/>
                </mxCell>
                <mxCell id="nRmkjCrauEu7ySk_4DRu-19" value="" style="aspect=fixed;perimeter=ellipsePerimeter;html=1;align=center;shadow=0;dashed=0;fontColor=#4277BB;labelBackgroundColor=#ffffff;fontSize=12;spacingTop=3;image;image=img/lib/ibm/applications/enterprise_applications.svg;container=0;" parent="g6O5RB1uuhMYXJ0zeJsR-0" vertex="1">
                    <mxGeometry x="504.90999999999997" y="92.40852051221714" width="45.18059991255275" height="45.18059991255275" as="geometry"/>
                </mxCell>
                <mxCell id="nRmkjCrauEu7ySk_4DRu-20" value="" style="aspect=fixed;perimeter=ellipsePerimeter;html=1;align=center;shadow=0;dashed=0;fontColor=#4277BB;labelBackgroundColor=#ffffff;fontSize=12;spacingTop=3;image;image=img/lib/ibm/applications/enterprise_applications.svg;container=0;" parent="g6O5RB1uuhMYXJ0zeJsR-0" vertex="1">
                    <mxGeometry x="604.9100000000001" y="92.40852051221714" width="45.18059991255275" height="45.18059991255275" as="geometry"/>
                </mxCell>
                <mxCell id="nRmkjCrauEu7ySk_4DRu-21" value="" style="aspect=fixed;perimeter=ellipsePerimeter;html=1;align=center;shadow=0;dashed=0;fontColor=#4277BB;labelBackgroundColor=#ffffff;fontSize=12;spacingTop=3;image;image=img/lib/ibm/applications/enterprise_applications.svg;container=0;" parent="g6O5RB1uuhMYXJ0zeJsR-0" vertex="1">
                    <mxGeometry x="604.9100000000001" y="152.41214152791508" width="45.18059991255275" height="45.18059991255275" as="geometry"/>
                </mxCell>
                <mxCell id="nRmkjCrauEu7ySk_4DRu-22" value="" style="aspect=fixed;perimeter=ellipsePerimeter;html=1;align=center;shadow=0;dashed=0;fontColor=#000000;labelBackgroundColor=#F8CECC;fontSize=12;spacingTop=3;image;image=img/lib/ibm/applications/enterprise_applications.svg;container=0;" parent="g6O5RB1uuhMYXJ0zeJsR-0" vertex="1">
                    <mxGeometry x="504.90999999999997" y="152.41155353581053" width="45.18059991255275" height="45.18059991255275" as="geometry"/>
                </mxCell>
                <mxCell id="nRmkjCrauEu7ySk_4DRu-27" value="" style="rounded=0;whiteSpace=wrap;html=1;align=center;fillColor=#f8cecc;strokeColor=#b85450;verticalAlign=top;container=0;" parent="g6O5RB1uuhMYXJ0zeJsR-0" vertex="1">
                    <mxGeometry x="901.75" y="41.309999999999945" width="220" height="158.69" as="geometry"/>
                </mxCell>
                <mxCell id="nRmkjCrauEu7ySk_4DRu-28" value="Workers" style="rounded=0;whiteSpace=wrap;html=1;align=center;fillColor=#f8cecc;strokeColor=#b85450;verticalAlign=top;container=0;" parent="g6O5RB1uuhMYXJ0zeJsR-0" vertex="1">
                    <mxGeometry x="910.25" y="52.6099999999999" width="220" height="157.39" as="geometry"/>
                </mxCell>
                <mxCell id="nRmkjCrauEu7ySk_4DRu-29" value="" style="aspect=fixed;perimeter=ellipsePerimeter;html=1;align=center;shadow=0;dashed=0;fontColor=#4277BB;labelBackgroundColor=#ffffff;fontSize=12;spacingTop=3;image;image=img/lib/ibm/applications/enterprise_applications.svg;container=0;" parent="g6O5RB1uuhMYXJ0zeJsR-0" vertex="1">
                    <mxGeometry x="939.1600000000001" y="87.40852051221714" width="45.18059991255275" height="45.18059991255275" as="geometry"/>
                </mxCell>
                <mxCell id="nRmkjCrauEu7ySk_4DRu-30" value="" style="aspect=fixed;perimeter=ellipsePerimeter;html=1;align=center;shadow=0;dashed=0;fontColor=#4277BB;labelBackgroundColor=#ffffff;fontSize=12;spacingTop=3;image;image=img/lib/ibm/applications/enterprise_applications.svg;container=0;" parent="g6O5RB1uuhMYXJ0zeJsR-0" vertex="1">
                    <mxGeometry x="1039.16" y="87.40852051221714" width="45.18059991255275" height="45.18059991255275" as="geometry"/>
                </mxCell>
                <mxCell id="nRmkjCrauEu7ySk_4DRu-31" value="" style="aspect=fixed;perimeter=ellipsePerimeter;html=1;align=center;shadow=0;dashed=0;fontColor=#4277BB;labelBackgroundColor=#ffffff;fontSize=12;spacingTop=3;image;image=img/lib/ibm/applications/enterprise_applications.svg;container=0;" parent="g6O5RB1uuhMYXJ0zeJsR-0" vertex="1">
                    <mxGeometry x="1039.16" y="147.41214152791508" width="45.18059991255275" height="45.18059991255275" as="geometry"/>
                </mxCell>
                <mxCell id="nRmkjCrauEu7ySk_4DRu-32" value="" style="aspect=fixed;perimeter=ellipsePerimeter;html=1;align=center;shadow=0;dashed=0;fontColor=#000000;labelBackgroundColor=#F8CECC;fontSize=12;spacingTop=3;image;image=img/lib/ibm/applications/enterprise_applications.svg;container=0;" parent="g6O5RB1uuhMYXJ0zeJsR-0" vertex="1">
                    <mxGeometry x="939.1600000000001" y="147.41155353581053" width="45.18059991255275" height="45.18059991255275" as="geometry"/>
                </mxCell>
                <mxCell id="nRmkjCrauEu7ySk_4DRu-100" value="" style="shape=flexArrow;endArrow=classic;startArrow=classic;html=1;fontColor=#000000;fillColor=#ffe6cc;strokeColor=#d79b00;endWidth=28;endSize=9.33;startWidth=28;startSize=9.33;entryX=0;entryY=0.5;entryDx=0;entryDy=0;exitX=1;exitY=0.5;exitDx=0;exitDy=0;" parent="g6O5RB1uuhMYXJ0zeJsR-0" source="nRmkjCrauEu7ySk_4DRu-18" target="nRmkjCrauEu7ySk_4DRu-28" edge="1">
                    <mxGeometry x="-103.25" y="-1315" width="50" height="50" as="geometry">
                        <mxPoint x="701.75" y="-118.69500000000016" as="sourcePoint"/>
                        <mxPoint x="919.75" y="-119.55902439024408" as="targetPoint"/>
                    </mxGeometry>
                </mxCell>
                <mxCell id="nRmkjCrauEu7ySk_4DRu-101" value="Anti-affinity rules" style="text;html=1;align=center;verticalAlign=middle;resizable=0;points=[];labelBackgroundColor=#ffffff;fontColor=#000000;fontSize=14;container=0;" parent="nRmkjCrauEu7ySk_4DRu-100" vertex="1" connectable="0">
                    <mxGeometry x="-0.1909" relative="1" as="geometry">
                        <mxPoint x="21" y="0.56" as="offset"/>
                    </mxGeometry>
                </mxCell>
                <mxCell id="nRmkjCrauEu7ySk_4DRu-102" value="" style="shape=flexArrow;endArrow=classic;startArrow=classic;html=1;fontColor=#000000;fillColor=#ffe6cc;strokeColor=#d79b00;endWidth=28;endSize=9.33;startWidth=28;startSize=9.33;exitX=1;exitY=0.5;exitDx=0;exitDy=0;" parent="g6O5RB1uuhMYXJ0zeJsR-0" source="nRmkjCrauEu7ySk_4DRu-4" target="nRmkjCrauEu7ySk_4DRu-18" edge="1">
                    <mxGeometry x="-93.25" y="-1305" width="50" height="50" as="geometry">
                        <mxPoint x="706" y="146.30499999999984" as="sourcePoint"/>
                        <mxPoint x="920.25" y="141.30499999999984" as="targetPoint"/>
                    </mxGeometry>
                </mxCell>
                <mxCell id="nRmkjCrauEu7ySk_4DRu-103" value="Anti-affinity rules" style="text;html=1;align=center;verticalAlign=middle;resizable=0;points=[];labelBackgroundColor=#ffffff;fontColor=#000000;fontSize=14;container=0;" parent="nRmkjCrauEu7ySk_4DRu-102" vertex="1" connectable="0">
                    <mxGeometry x="-0.1909" relative="1" as="geometry">
                        <mxPoint x="21" y="0.56" as="offset"/>
                    </mxGeometry>
                </mxCell>
                <mxCell id="rJhWBv6eELaH0z6lBwar-0" value="LoadBalancers-workers" style="" parent="uZquAlJrsq5l2rnmuD46-0" visible="0"/>
                <mxCell id="RaqJMLTzkmmdIcjOtUHy-9" value="" style="edgeStyle=orthogonalEdgeStyle;rounded=0;orthogonalLoop=1;jettySize=auto;html=1;" parent="rJhWBv6eELaH0z6lBwar-0" source="RaqJMLTzkmmdIcjOtUHy-4" target="9j-W4DqO4weL1ffOHmue-72" edge="1">
                    <mxGeometry relative="1" as="geometry"/>
                </mxCell>
                <mxCell id="RaqJMLTzkmmdIcjOtUHy-4" value="&lt;font style=&quot;font-size: 10px&quot;&gt;&lt;b&gt;*.APPS&lt;br&gt;LoadBalancer&lt;/b&gt;&lt;br&gt;&lt;/font&gt;" style="fontColor=#0066CC;verticalAlign=top;verticalLabelPosition=bottom;labelPosition=center;align=center;html=1;outlineConnect=0;fillColor=#CCCCCC;strokeColor=#6881B3;gradientColor=none;gradientDirection=north;strokeWidth=2;shape=mxgraph.networks.load_balancer;" parent="rJhWBv6eELaH0z6lBwar-0" vertex="1">
                    <mxGeometry x="1420" y="1075" width="140" height="40" as="geometry"/>
                </mxCell>
                <mxCell id="uZquAlJrsq5l2rnmuD46-49" value="Infra" style="" parent="uZquAlJrsq5l2rnmuD46-0"/>
                <mxCell id="nRmkjCrauEu7ySk_4DRu-72" value="&lt;font color=&quot;#000000&quot;&gt;&lt;b&gt;Infra MachineSets&lt;/b&gt;&lt;/font&gt;" style="outlineConnect=0;gradientColor=none;html=1;whiteSpace=wrap;fontSize=12;fontStyle=0;shape=mxgraph.aws4.group;grIcon=mxgraph.aws4.group_region;strokeColor=#B6BABF;fillColor=none;verticalAlign=top;align=left;spacingLeft=30;fontColor=#B6BABF;dashed=1;container=0;" parent="uZquAlJrsq5l2rnmuD46-49" vertex="1">
                    <mxGeometry x="100" y="527.5" width="1150" height="215" as="geometry"/>
                </mxCell>
                <mxCell id="nRmkjCrauEu7ySk_4DRu-81" value="" style="group" parent="uZquAlJrsq5l2rnmuD46-49" vertex="1" connectable="0">
                    <mxGeometry x="125" y="555" width="1108" height="160" as="geometry"/>
                </mxCell>
                <mxCell id="9j-W4DqO4weL1ffOHmue-42" value="" style="group" parent="nRmkjCrauEu7ySk_4DRu-81" vertex="1" connectable="0">
                    <mxGeometry width="220" height="160" as="geometry"/>
                </mxCell>
                <mxCell id="nRmkjCrauEu7ySk_4DRu-78" value="" style="group" parent="9j-W4DqO4weL1ffOHmue-42" vertex="1" connectable="0">
                    <mxGeometry width="220" height="160" as="geometry"/>
                </mxCell>
                <mxCell id="uZquAlJrsq5l2rnmuD46-64" value="&lt;b&gt;infra-1&lt;/b&gt;" style="rounded=0;whiteSpace=wrap;html=1;align=center;fillColor=#f8cecc;strokeColor=#b85450;verticalAlign=top;container=0;" parent="nRmkjCrauEu7ySk_4DRu-78" vertex="1">
                    <mxGeometry width="220" height="160" as="geometry"/>
                </mxCell>
                <mxCell id="uZquAlJrsq5l2rnmuD46-67" value="&lt;font color=&quot;#000000&quot;&gt;&lt;span style=&quot;background-color: rgb(248 , 206 , 204)&quot;&gt;Registry&lt;/span&gt;&lt;br&gt;&lt;/font&gt;" style="aspect=fixed;perimeter=ellipsePerimeter;html=1;align=center;shadow=0;dashed=0;fontColor=#4277BB;labelBackgroundColor=#ffffff;fontSize=12;spacingTop=3;image;image=img/lib/ibm/infrastructure/mobile_backend.svg;strokeColor=#000000;strokeWidth=2;imageBackground=none;container=0;" parent="nRmkjCrauEu7ySk_4DRu-78" vertex="1">
                    <mxGeometry x="36" y="20" width="40" height="40" as="geometry"/>
                </mxCell>
                <mxCell id="uZquAlJrsq5l2rnmuD46-68" value="&lt;font color=&quot;#000000&quot; style=&quot;background-color: rgb(248 , 206 , 204)&quot;&gt;Router&lt;/font&gt;" style="aspect=fixed;perimeter=ellipsePerimeter;html=1;align=center;shadow=0;dashed=0;fontColor=#4277BB;labelBackgroundColor=#ffffff;fontSize=12;spacingTop=3;image;image=img/lib/ibm/infrastructure/load_balancing_routing.svg;strokeColor=#000000;strokeWidth=2;container=0;" parent="nRmkjCrauEu7ySk_4DRu-78" vertex="1">
                    <mxGeometry x="146" y="20" width="40" height="40" as="geometry"/>
                </mxCell>
                <mxCell id="kbTmHQ6AqNmRF9A8q6-n-23" value="&lt;font color=&quot;#000000&quot; style=&quot;background-color: rgb(248 , 206 , 204)&quot;&gt;Monitoring&lt;/font&gt;" style="aspect=fixed;perimeter=ellipsePerimeter;html=1;align=center;shadow=0;dashed=0;fontColor=#4277BB;labelBackgroundColor=#ffffff;fontSize=12;spacingTop=3;image;image=img/lib/ibm/infrastructure/monitoring.svg;strokeColor=#000000;strokeWidth=2;container=0;" parent="nRmkjCrauEu7ySk_4DRu-78" vertex="1">
                    <mxGeometry x="36" y="90" width="41.43" height="41.43" as="geometry"/>
                </mxCell>
                <mxCell id="kbTmHQ6AqNmRF9A8q6-n-24" value="&lt;font color=&quot;#000000&quot; style=&quot;background-color: rgb(248 , 206 , 204)&quot;&gt;Logging&lt;/font&gt;" style="aspect=fixed;perimeter=ellipsePerimeter;html=1;align=center;shadow=0;dashed=0;fontColor=#4277BB;labelBackgroundColor=#ffffff;fontSize=12;spacingTop=3;image;image=img/lib/ibm/infrastructure/monitoring_logging.svg;strokeColor=#000000;strokeWidth=2;container=0;" parent="nRmkjCrauEu7ySk_4DRu-78" vertex="1">
                    <mxGeometry x="146" y="90" width="41.43" height="41.43" as="geometry"/>
                </mxCell>
                <mxCell id="9j-W4DqO4weL1ffOHmue-43" value="" style="group" parent="nRmkjCrauEu7ySk_4DRu-81" vertex="1" connectable="0">
                    <mxGeometry x="445" width="220" height="160" as="geometry"/>
                </mxCell>
                <mxCell id="nRmkjCrauEu7ySk_4DRu-79" value="" style="group" parent="9j-W4DqO4weL1ffOHmue-43" vertex="1" connectable="0">
                    <mxGeometry width="220" height="160" as="geometry"/>
                </mxCell>
                <mxCell id="uZquAlJrsq5l2rnmuD46-65" value="&lt;b&gt;infra-2&lt;/b&gt;" style="rounded=0;whiteSpace=wrap;html=1;align=center;fillColor=#f8cecc;strokeColor=#b85450;verticalAlign=top;container=0;" parent="nRmkjCrauEu7ySk_4DRu-79" vertex="1">
                    <mxGeometry width="220" height="160" as="geometry"/>
                </mxCell>
                <mxCell id="kbTmHQ6AqNmRF9A8q6-n-25" value="&lt;font color=&quot;#000000&quot;&gt;&lt;span style=&quot;background-color: rgb(248 , 206 , 204)&quot;&gt;Registry&lt;/span&gt;&lt;br&gt;&lt;/font&gt;" style="aspect=fixed;perimeter=ellipsePerimeter;html=1;align=center;shadow=0;dashed=0;fontColor=#4277BB;labelBackgroundColor=#ffffff;fontSize=12;spacingTop=3;image;image=img/lib/ibm/infrastructure/mobile_backend.svg;strokeColor=#000000;strokeWidth=2;imageBackground=none;container=0;" parent="nRmkjCrauEu7ySk_4DRu-79" vertex="1">
                    <mxGeometry x="36" y="20" width="40" height="40" as="geometry"/>
                </mxCell>
                <mxCell id="kbTmHQ6AqNmRF9A8q6-n-26" value="&lt;font color=&quot;#000000&quot; style=&quot;background-color: rgb(248 , 206 , 204)&quot;&gt;Router&lt;/font&gt;" style="aspect=fixed;perimeter=ellipsePerimeter;html=1;align=center;shadow=0;dashed=0;fontColor=#4277BB;labelBackgroundColor=#ffffff;fontSize=12;spacingTop=3;image;image=img/lib/ibm/infrastructure/load_balancing_routing.svg;strokeColor=#000000;strokeWidth=2;container=0;" parent="nRmkjCrauEu7ySk_4DRu-79" vertex="1">
                    <mxGeometry x="146" y="20" width="40" height="40" as="geometry"/>
                </mxCell>
                <mxCell id="kbTmHQ6AqNmRF9A8q6-n-27" value="&lt;font color=&quot;#000000&quot; style=&quot;background-color: rgb(248 , 206 , 204)&quot;&gt;Monitoring&lt;/font&gt;" style="aspect=fixed;perimeter=ellipsePerimeter;html=1;align=center;shadow=0;dashed=0;fontColor=#4277BB;labelBackgroundColor=#ffffff;fontSize=12;spacingTop=3;image;image=img/lib/ibm/infrastructure/monitoring.svg;strokeColor=#000000;strokeWidth=2;container=0;" parent="nRmkjCrauEu7ySk_4DRu-79" vertex="1">
                    <mxGeometry x="36" y="90" width="41.43" height="41.43" as="geometry"/>
                </mxCell>
                <mxCell id="kbTmHQ6AqNmRF9A8q6-n-28" value="&lt;font color=&quot;#000000&quot; style=&quot;background-color: rgb(248 , 206 , 204)&quot;&gt;Logging&lt;/font&gt;" style="aspect=fixed;perimeter=ellipsePerimeter;html=1;align=center;shadow=0;dashed=0;fontColor=#4277BB;labelBackgroundColor=#ffffff;fontSize=12;spacingTop=3;image;image=img/lib/ibm/infrastructure/monitoring_logging.svg;strokeColor=#000000;strokeWidth=2;container=0;" parent="nRmkjCrauEu7ySk_4DRu-79" vertex="1">
                    <mxGeometry x="146" y="90" width="41.43" height="41.43" as="geometry"/>
                </mxCell>
                <mxCell id="uZquAlJrsq5l2rnmuD46-53" value="" style="shape=flexArrow;endArrow=classic;startArrow=classic;html=1;fontColor=#000000;fillColor=#ffe6cc;strokeColor=#d79b00;endWidth=28;endSize=9.33;startWidth=28;startSize=9.33;exitX=1;exitY=0.5;exitDx=0;exitDy=0;entryX=0;entryY=0.5;entryDx=0;entryDy=0;" parent="nRmkjCrauEu7ySk_4DRu-81" source="uZquAlJrsq5l2rnmuD46-64" target="uZquAlJrsq5l2rnmuD46-65" edge="1">
                    <mxGeometry x="-1" y="305" width="50" height="50" as="geometry">
                        <mxPoint x="219" y="401.85859014778316" as="sourcePoint"/>
                        <mxPoint x="439" y="401.7122066995073" as="targetPoint"/>
                    </mxGeometry>
                </mxCell>
                <mxCell id="uZquAlJrsq5l2rnmuD46-54" value="Anti-affinity rules" style="text;html=1;align=center;verticalAlign=middle;resizable=0;points=[];labelBackgroundColor=#ffffff;fontColor=#000000;fontSize=14;container=0;" parent="uZquAlJrsq5l2rnmuD46-53" vertex="1" connectable="0">
                    <mxGeometry x="-0.1909" relative="1" as="geometry">
                        <mxPoint x="21" y="0.56" as="offset"/>
                    </mxGeometry>
                </mxCell>
                <mxCell id="9j-W4DqO4weL1ffOHmue-44" value="" style="group" parent="nRmkjCrauEu7ySk_4DRu-81" vertex="1" connectable="0">
                    <mxGeometry x="888" width="220" height="160" as="geometry"/>
                </mxCell>
                <mxCell id="nRmkjCrauEu7ySk_4DRu-80" value="" style="group" parent="9j-W4DqO4weL1ffOHmue-44" vertex="1" connectable="0">
                    <mxGeometry width="220" height="160" as="geometry"/>
                </mxCell>
                <mxCell id="uZquAlJrsq5l2rnmuD46-66" value="&lt;b&gt;infra-3&lt;/b&gt;" style="rounded=0;whiteSpace=wrap;html=1;align=center;fillColor=#f8cecc;strokeColor=#b85450;verticalAlign=top;container=0;" parent="nRmkjCrauEu7ySk_4DRu-80" vertex="1">
                    <mxGeometry width="220" height="160" as="geometry"/>
                </mxCell>
                <mxCell id="kbTmHQ6AqNmRF9A8q6-n-29" value="&lt;font color=&quot;#000000&quot;&gt;&lt;span style=&quot;background-color: rgb(248 , 206 , 204)&quot;&gt;Registry&lt;/span&gt;&lt;br&gt;&lt;/font&gt;" style="aspect=fixed;perimeter=ellipsePerimeter;html=1;align=center;shadow=0;dashed=0;fontColor=#4277BB;labelBackgroundColor=#ffffff;fontSize=12;spacingTop=3;image;image=img/lib/ibm/infrastructure/mobile_backend.svg;strokeColor=#000000;strokeWidth=2;imageBackground=none;container=0;" parent="nRmkjCrauEu7ySk_4DRu-80" vertex="1">
                    <mxGeometry x="43" y="20" width="40" height="40" as="geometry"/>
                </mxCell>
                <mxCell id="kbTmHQ6AqNmRF9A8q6-n-30" value="&lt;font color=&quot;#000000&quot; style=&quot;background-color: rgb(248 , 206 , 204)&quot;&gt;Router&lt;/font&gt;" style="aspect=fixed;perimeter=ellipsePerimeter;html=1;align=center;shadow=0;dashed=0;fontColor=#4277BB;labelBackgroundColor=#ffffff;fontSize=12;spacingTop=3;image;image=img/lib/ibm/infrastructure/load_balancing_routing.svg;strokeColor=#000000;strokeWidth=2;container=0;" parent="nRmkjCrauEu7ySk_4DRu-80" vertex="1">
                    <mxGeometry x="153" y="20" width="40" height="40" as="geometry"/>
                </mxCell>
                <mxCell id="kbTmHQ6AqNmRF9A8q6-n-31" value="&lt;font color=&quot;#000000&quot; style=&quot;background-color: rgb(248 , 206 , 204)&quot;&gt;Monitoring&lt;/font&gt;" style="aspect=fixed;perimeter=ellipsePerimeter;html=1;align=center;shadow=0;dashed=0;fontColor=#4277BB;labelBackgroundColor=#ffffff;fontSize=12;spacingTop=3;image;image=img/lib/ibm/infrastructure/monitoring.svg;strokeColor=#000000;strokeWidth=2;container=0;" parent="nRmkjCrauEu7ySk_4DRu-80" vertex="1">
                    <mxGeometry x="43" y="90" width="41.43" height="41.43" as="geometry"/>
                </mxCell>
                <mxCell id="kbTmHQ6AqNmRF9A8q6-n-32" value="&lt;font color=&quot;#000000&quot; style=&quot;background-color: rgb(248 , 206 , 204)&quot;&gt;Logging&lt;/font&gt;" style="aspect=fixed;perimeter=ellipsePerimeter;html=1;align=center;shadow=0;dashed=0;fontColor=#4277BB;labelBackgroundColor=#ffffff;fontSize=12;spacingTop=3;image;image=img/lib/ibm/infrastructure/monitoring_logging.svg;strokeColor=#000000;strokeWidth=2;container=0;" parent="nRmkjCrauEu7ySk_4DRu-80" vertex="1">
                    <mxGeometry x="153" y="90" width="41.43" height="41.43" as="geometry"/>
                </mxCell>
                <mxCell id="uZquAlJrsq5l2rnmuD46-51" value="" style="shape=flexArrow;endArrow=classic;startArrow=classic;html=1;fontColor=#000000;fillColor=#ffe6cc;strokeColor=#d79b00;endWidth=28;endSize=9.33;startWidth=28;startSize=9.33;exitX=1;exitY=0.5;exitDx=0;exitDy=0;" parent="nRmkjCrauEu7ySk_4DRu-81" source="uZquAlJrsq5l2rnmuD46-65" target="uZquAlJrsq5l2rnmuD46-66" edge="1">
                    <mxGeometry x="-35" y="-65" width="50" height="50" as="geometry">
                        <mxPoint x="659" y="401.708481803081" as="sourcePoint"/>
                        <mxPoint x="879.5" y="401.99277497536946" as="targetPoint"/>
                    </mxGeometry>
                </mxCell>
                <mxCell id="uZquAlJrsq5l2rnmuD46-52" value="Anti-affinity rules" style="text;html=1;align=center;verticalAlign=middle;resizable=0;points=[];labelBackgroundColor=#ffffff;fontColor=#000000;fontSize=14;container=0;" parent="uZquAlJrsq5l2rnmuD46-51" vertex="1" connectable="0">
                    <mxGeometry x="-0.1909" relative="1" as="geometry">
                        <mxPoint x="21" y="0.56" as="offset"/>
                    </mxGeometry>
                </mxCell>
                <mxCell id="RaqJMLTzkmmdIcjOtUHy-10" value="" style="edgeStyle=orthogonalEdgeStyle;rounded=0;orthogonalLoop=1;jettySize=auto;html=1;" parent="uZquAlJrsq5l2rnmuD46-49" source="lS-NssMR-Rr2RZA9TcL4-175" target="nRmkjCrauEu7ySk_4DRu-72" edge="1">
                    <mxGeometry relative="1" as="geometry"/>
                </mxCell>
                <mxCell id="lS-NssMR-Rr2RZA9TcL4-175" value="&lt;font style=&quot;font-size: 10px&quot;&gt;&lt;b&gt;*.APPS&lt;br&gt;LoadBalancer&lt;/b&gt;&lt;br&gt;&lt;/font&gt;" style="fontColor=#0066CC;verticalAlign=top;verticalLabelPosition=bottom;labelPosition=center;align=center;html=1;outlineConnect=0;fillColor=#CCCCCC;strokeColor=#6881B3;gradientColor=none;gradientDirection=north;strokeWidth=2;shape=mxgraph.networks.load_balancer;" parent="uZquAlJrsq5l2rnmuD46-49" vertex="1">
                    <mxGeometry x="1420" y="615" width="140" height="40" as="geometry"/>
                </mxCell>
                <mxCell id="lS-NssMR-Rr2RZA9TcL4-130" value="Storage" style="" parent="uZquAlJrsq5l2rnmuD46-0"/>
                <mxCell id="lS-NssMR-Rr2RZA9TcL4-159" value="" style="group" parent="lS-NssMR-Rr2RZA9TcL4-130" vertex="1" connectable="0">
                    <mxGeometry x="125" y="800" width="1138.5" height="185" as="geometry"/>
                </mxCell>
                <mxCell id="lS-NssMR-Rr2RZA9TcL4-160" value="" style="group" parent="lS-NssMR-Rr2RZA9TcL4-159" vertex="1" connectable="0">
                    <mxGeometry y="2.659999999999968" width="1138.5" height="182.34000000000003" as="geometry"/>
                </mxCell>
                <mxCell id="lS-NssMR-Rr2RZA9TcL4-161" value="" style="group" parent="lS-NssMR-Rr2RZA9TcL4-160" vertex="1" connectable="0">
                    <mxGeometry width="1138.5" height="182.34000000000003" as="geometry"/>
                </mxCell>
                <mxCell id="lS-NssMR-Rr2RZA9TcL4-131" value="&lt;font color=&quot;#000000&quot;&gt;&lt;b&gt;Storage MachineSets&lt;/b&gt;&lt;/font&gt;" style="outlineConnect=0;gradientColor=none;html=1;whiteSpace=wrap;fontSize=12;fontStyle=0;shape=mxgraph.aws4.group;grIcon=mxgraph.aws4.group_region;strokeColor=#B6BABF;fillColor=none;verticalAlign=top;align=left;spacingLeft=30;fontColor=#B6BABF;dashed=1;container=0;" parent="lS-NssMR-Rr2RZA9TcL4-161" vertex="1">
                    <mxGeometry x="-28" y="-32.65999999999997" width="1153.5" height="215" as="geometry"/>
                </mxCell>
                <mxCell id="lS-NssMR-Rr2RZA9TcL4-162" value="&lt;b&gt;storage-1&lt;/b&gt;" style="rounded=0;whiteSpace=wrap;html=1;align=center;fillColor=#f8cecc;strokeColor=#b85450;verticalAlign=top;container=0;" parent="lS-NssMR-Rr2RZA9TcL4-161" vertex="1">
                    <mxGeometry width="220" height="160" as="geometry"/>
                </mxCell>
                <mxCell id="lS-NssMR-Rr2RZA9TcL4-163" value="OpenShift Container Storage" style="aspect=fixed;html=1;points=[];align=center;image;fontSize=12;image=img/lib/mscae/OpenShift.svg;labelBackgroundColor=none;container=0;" parent="lS-NssMR-Rr2RZA9TcL4-161" vertex="1">
                    <mxGeometry x="85" y="57" width="50" height="46" as="geometry"/>
                </mxCell>
                <mxCell id="lS-NssMR-Rr2RZA9TcL4-164" value="" style="shape=flexArrow;endArrow=classic;startArrow=classic;html=1;fontColor=#000000;fillColor=#ffe6cc;strokeColor=#d79b00;endWidth=28;endSize=9.33;startWidth=28;startSize=9.33;exitX=1;exitY=0.5;exitDx=0;exitDy=0;entryX=0;entryY=0.5;entryDx=0;entryDy=0;" parent="lS-NssMR-Rr2RZA9TcL4-159" edge="1">
                    <mxGeometry x="5.5" y="277.6600000000001" width="50" height="50" as="geometry">
                        <mxPoint x="220" y="52.659999999999854" as="sourcePoint"/>
                        <mxPoint x="445" y="50" as="targetPoint"/>
                    </mxGeometry>
                </mxCell>
                <mxCell id="lS-NssMR-Rr2RZA9TcL4-165" value="Anti-affinity rules" style="text;html=1;align=center;verticalAlign=middle;resizable=0;points=[];labelBackgroundColor=#ffffff;fontColor=#000000;fontSize=14;container=0;" parent="lS-NssMR-Rr2RZA9TcL4-164" vertex="1" connectable="0">
                    <mxGeometry x="-0.1909" relative="1" as="geometry">
                        <mxPoint x="21" y="0.56" as="offset"/>
                    </mxGeometry>
                </mxCell>
                <mxCell id="lS-NssMR-Rr2RZA9TcL4-166" value="" style="group" parent="lS-NssMR-Rr2RZA9TcL4-159" vertex="1" connectable="0">
                    <mxGeometry x="445" width="220" height="160" as="geometry"/>
                </mxCell>
                <mxCell id="lS-NssMR-Rr2RZA9TcL4-167" value="&lt;b&gt;storage-2&lt;/b&gt;" style="rounded=0;whiteSpace=wrap;html=1;align=center;fillColor=#f8cecc;strokeColor=#b85450;verticalAlign=top;container=0;" parent="lS-NssMR-Rr2RZA9TcL4-166" vertex="1">
                    <mxGeometry width="220" height="160" as="geometry"/>
                </mxCell>
                <mxCell id="lS-NssMR-Rr2RZA9TcL4-168" value="OpenShift Container Storage" style="aspect=fixed;html=1;points=[];align=center;image;fontSize=12;image=img/lib/mscae/OpenShift.svg;labelBackgroundColor=none;container=0;" parent="lS-NssMR-Rr2RZA9TcL4-166" vertex="1">
                    <mxGeometry x="80" y="57" width="50" height="46" as="geometry"/>
                </mxCell>
                <mxCell id="lS-NssMR-Rr2RZA9TcL4-169" value="" style="group" parent="lS-NssMR-Rr2RZA9TcL4-159" vertex="1" connectable="0">
                    <mxGeometry x="888.5" width="220" height="160" as="geometry"/>
                </mxCell>
                <mxCell id="lS-NssMR-Rr2RZA9TcL4-170" value="&lt;b&gt;storage-3&lt;/b&gt;" style="rounded=0;whiteSpace=wrap;html=1;align=center;fillColor=#f8cecc;strokeColor=#b85450;verticalAlign=top;container=0;" parent="lS-NssMR-Rr2RZA9TcL4-169" vertex="1">
                    <mxGeometry width="220" height="160" as="geometry"/>
                </mxCell>
                <mxCell id="lS-NssMR-Rr2RZA9TcL4-171" value="OpenShift Container Storage" style="aspect=fixed;html=1;points=[];align=center;image;fontSize=12;image=img/lib/mscae/OpenShift.svg;labelBackgroundColor=none;container=0;" parent="lS-NssMR-Rr2RZA9TcL4-169" vertex="1">
                    <mxGeometry x="85" y="57" width="50" height="46" as="geometry"/>
                </mxCell>
                <mxCell id="lS-NssMR-Rr2RZA9TcL4-172" value="" style="shape=flexArrow;endArrow=classic;startArrow=classic;html=1;fontColor=#000000;fillColor=#ffe6cc;strokeColor=#d79b00;endWidth=28;endSize=9.33;startWidth=28;startSize=9.33;exitX=1;exitY=0.5;exitDx=0;exitDy=0;" parent="lS-NssMR-Rr2RZA9TcL4-159" edge="1">
                    <mxGeometry x="-28.5" y="-91.34000000000003" width="50" height="50" as="geometry">
                        <mxPoint x="665" y="51" as="sourcePoint"/>
                        <mxPoint x="888.4999999999995" y="51" as="targetPoint"/>
                    </mxGeometry>
                </mxCell>
                <mxCell id="lS-NssMR-Rr2RZA9TcL4-173" value="Anti-affinity rules" style="text;html=1;align=center;verticalAlign=middle;resizable=0;points=[];labelBackgroundColor=#ffffff;fontColor=#000000;fontSize=14;container=0;" parent="lS-NssMR-Rr2RZA9TcL4-172" vertex="1" connectable="0">
                    <mxGeometry x="-0.1909" relative="1" as="geometry">
                        <mxPoint x="21" y="0.56" as="offset"/>
                    </mxGeometry>
                </mxCell>
                <mxCell id="j00zhMUsDDQBFLXk2WEo-2" value="" style="shape=flexArrow;endArrow=classic;startArrow=classic;html=1;fontColor=#000000;fillColor=#ffe6cc;strokeColor=#d79b00;endWidth=28;endSize=9.33;startWidth=28;startSize=9.33;exitX=1;exitY=0.5;exitDx=0;exitDy=0;entryX=0;entryY=0.5;entryDx=0;entryDy=0;" parent="lS-NssMR-Rr2RZA9TcL4-130" edge="1">
                    <mxGeometry x="450.5" y="354.6600000000001" width="50" height="50" as="geometry">
                        <mxPoint x="790" y="929.6599999999999" as="sourcePoint"/>
                        <mxPoint x="1015" y="927" as="targetPoint"/>
                    </mxGeometry>
                </mxCell>
                <mxCell id="j00zhMUsDDQBFLXk2WEo-3" value="Data Replication" style="text;html=1;align=center;verticalAlign=middle;resizable=0;points=[];labelBackgroundColor=#ffffff;fontColor=#000000;fontSize=14;container=0;" parent="j00zhMUsDDQBFLXk2WEo-2" vertex="1" connectable="0">
                    <mxGeometry x="-0.1909" relative="1" as="geometry">
                        <mxPoint x="21" y="0.56" as="offset"/>
                    </mxGeometry>
                </mxCell>
                <mxCell id="j00zhMUsDDQBFLXk2WEo-6" value="" style="shape=flexArrow;endArrow=classic;startArrow=classic;html=1;fontColor=#000000;fillColor=#ffe6cc;strokeColor=#d79b00;endWidth=28;endSize=9.33;startWidth=28;startSize=9.33;exitX=1;exitY=0.5;exitDx=0;exitDy=0;entryX=0;entryY=0.5;entryDx=0;entryDy=0;" parent="lS-NssMR-Rr2RZA9TcL4-130" edge="1">
                    <mxGeometry x="5.5" y="356.6600000000001" width="50" height="50" as="geometry">
                        <mxPoint x="345" y="931.6599999999999" as="sourcePoint"/>
                        <mxPoint x="570" y="929" as="targetPoint"/>
                    </mxGeometry>
                </mxCell>
                <mxCell id="j00zhMUsDDQBFLXk2WEo-7" value="Data Replication" style="text;html=1;align=center;verticalAlign=middle;resizable=0;points=[];labelBackgroundColor=#ffffff;fontColor=#000000;fontSize=14;container=0;" parent="j00zhMUsDDQBFLXk2WEo-6" vertex="1" connectable="0">
                    <mxGeometry x="-0.1909" relative="1" as="geometry">
                        <mxPoint x="21" y="0.56" as="offset"/>
                    </mxGeometry>
                </mxCell>
            </root>
        </mxGraphModel>
    </diagram>
</mxfile>